<svg xmlns="http://www.w3.org/2000/svg" viewBox="0 0 64 64" role="img" aria-label="NS favicon">
  <defs>
    <linearGradient id="g" x1="0" y1="0" x2="1" y2="1">
      <stop offset="0%" stop-color="#3b82f6" />
      <stop offset="100%" stop-color="#06b6d4" />
    </linearGradient>
  </defs>
  <rect x="2" y="2" width="60" height="60" rx="16" fill="url(#g)" />
  <path d="M18 45V19h6l16 17V19h6v26h-6L24 28v17z" fill="#ffffff" />
  <path d="M41 45c-5 0-9-3-10-8h6c1 2 2 3 4 3 2 0 3-1 3-2 0-2-2-2-5-3-4-1-8-3-8-8 0-5 4-9 10-9 5 0 9 3 10 8h-6c-1-2-2-3-4-3-2 0-3 1-3 2 0 2 2 2 5 3 4 1 8 3 8 8 0 5-4 9-10 9z" fill="#ffffff" />
</svg>
